<svg aria-hidden="true" style="position: absolute; width: 0; height: 0; overflow: hidden;" version="1.1" xmlns="http://www.w3.org/2000/svg" xmlns:xlink="http://www.w3.org/1999/xlink">
<defs>
<symbol id="icon-property" viewBox="0 0 8 8">
<path d="M5.723 2.127c0.082-0.080 0.195-0.129 0.319-0.129 0.251 0 0.455 0.201 0.458 0.451l0 0c0 0.004 0 0.008 0 0.012 0 0.121-0.046 0.23-0.121 0.313l0-0-2.447 3.077c-0.084 0.091-0.205 0.148-0.338 0.148-0.062 0-0.121-0.012-0.175-0.034l0.003 0.001c-0.060-0.025-0.11-0.059-0.153-0.102l-0-0-1.623-1.631c-0.091-0.085-0.147-0.205-0.147-0.338 0-0.063 0.012-0.122 0.035-0.177l-0.001 0.003c0.070-0.171 0.236-0.289 0.429-0.289 0.002 0 0.004 0 0.007 0h-0c0.13 0.002 0.246 0.058 0.328 0.147l0 0 1.284 1.291 2.13-2.729c0.004-0.005 0.008-0.009 0.012-0.013l-0-0z"></path>
</symbol>
<symbol id="icon-close-black" viewBox="0 0 8 8">
<path d="M8 0.806l-0.806-0.806-3.194 3.194-3.194-3.194-0.806 0.806 3.194 3.194-3.194 3.194 0.806 0.806 3.194-3.194 3.194 3.194 0.806-0.806-3.194-3.194 3.194-3.194z"></path>
</symbol>
<symbol id="icon-email-black" viewBox="0 0 6 8">
<path d="M5 2h-4c-0.275 0-0.497 0.225-0.497 0.5l-0.003 3c0 0.275 0.225 0.5 0.5 0.5h4c0.275 0 0.5-0.225 0.5-0.5v-3c0-0.275-0.225-0.5-0.5-0.5zM4.9 3.063l-1.767 1.105c-0.038 0.024-0.084 0.038-0.133 0.038s-0.095-0.014-0.134-0.038l0.001 0.001-1.767-1.105c-0.063-0.038-0.104-0.105-0.104-0.183 0-0.117 0.095-0.212 0.212-0.212 0.044 0 0.084 0.013 0.118 0.036l1.674 1.047 1.675-1.048c0.033-0.022 0.073-0.035 0.117-0.035 0.117 0 0.212 0.095 0.212 0.212 0 0.077-0.041 0.145-0.103 0.182l-0.001 0.001z"></path>
</symbol>
<symbol id="icon-phone-black" viewBox="0 0 6 8">
<path d="M4.909 4.622l-0.613-0.070c-0.017-0.002-0.036-0.003-0.056-0.003-0.133 0-0.253 0.054-0.34 0.141l-0.444 0.444c-0.688-0.355-1.235-0.902-1.58-1.569l-0.010-0.020 0.447-0.446c0.087-0.087 0.141-0.207 0.141-0.339 0-0.020-0.001-0.039-0.003-0.058l0 0.002-0.070-0.608c-0.029-0.242-0.232-0.427-0.479-0.427-0 0-0 0-0.001 0h-0.417c-0.273 0-0.499 0.227-0.482 0.499 0.128 2.060 1.775 3.705 3.833 3.833 0.273 0.017 0.499-0.21 0.499-0.483v-0.417c0-0.001 0-0.002 0-0.003 0-0.245-0.185-0.447-0.422-0.475l-0.002-0z"></path>
</symbol>
<symbol id="icon-person-black" viewBox="0 0 8 8">
<path d="M4 4c0.736 0 1.333-0.597 1.333-1.333s-0.597-1.333-1.333-1.333v0c-0.736 0-1.333 0.597-1.333 1.333s0.597 1.333 1.333 1.333v0zM4 4.667c-0.89 0-2.667 0.447-2.667 1.333v0.333c0 0.183 0.15 0.333 0.333 0.333h4.667c0.183 0 0.333-0.15 0.333-0.333v-0.333c0-0.887-1.777-1.333-2.667-1.333z"></path>
</symbol>
</defs>
</svg>
